<mxfile host="app.diagrams.net" modified="2021-03-24T15:05:32.333Z" agent="5.0 (X11; Linux x86_64) AppleWebKit/537.36 (KHTML, like Gecko) Chrome/88.0.4324.192 Safari/537.36 OPR/74.0.3911.232" etag="T4s4kypLhUZtwR2aXByd" version="14.4.9" type="github">
  <diagram id="C5RBs43oDa-KdzZeNtuy" name="Page-1">
    <mxGraphModel dx="1310" dy="1825" grid="1" gridSize="10" guides="1" tooltips="1" connect="1" arrows="1" fold="1" page="1" pageScale="1" pageWidth="827" pageHeight="1169" math="0" shadow="0">
      <root>
        <mxCell id="WIyWlLk6GJQsqaUBKTNV-0" />
        <mxCell id="WIyWlLk6GJQsqaUBKTNV-1" parent="WIyWlLk6GJQsqaUBKTNV-0" />
        <mxCell id="mdEiC-76GbIUr6cUF3B1-29" style="edgeStyle=orthogonalEdgeStyle;rounded=0;orthogonalLoop=1;jettySize=auto;html=1;entryX=0.5;entryY=0;entryDx=0;entryDy=0;exitX=0.5;exitY=1;exitDx=0;exitDy=0;" edge="1" parent="WIyWlLk6GJQsqaUBKTNV-1" source="mdEiC-76GbIUr6cUF3B1-0" target="mdEiC-76GbIUr6cUF3B1-2">
          <mxGeometry relative="1" as="geometry" />
        </mxCell>
        <mxCell id="mdEiC-76GbIUr6cUF3B1-33" style="edgeStyle=orthogonalEdgeStyle;rounded=0;orthogonalLoop=1;jettySize=auto;html=1;" edge="1" parent="WIyWlLk6GJQsqaUBKTNV-1" source="mdEiC-76GbIUr6cUF3B1-0" target="mdEiC-76GbIUr6cUF3B1-26">
          <mxGeometry relative="1" as="geometry" />
        </mxCell>
        <mxCell id="mdEiC-76GbIUr6cUF3B1-34" style="edgeStyle=orthogonalEdgeStyle;rounded=0;orthogonalLoop=1;jettySize=auto;html=1;exitX=0.5;exitY=1;exitDx=0;exitDy=0;" edge="1" parent="WIyWlLk6GJQsqaUBKTNV-1" source="mdEiC-76GbIUr6cUF3B1-0" target="mdEiC-76GbIUr6cUF3B1-4">
          <mxGeometry relative="1" as="geometry" />
        </mxCell>
        <mxCell id="mdEiC-76GbIUr6cUF3B1-0" value="Index" style="rounded=1;whiteSpace=wrap;html=1;fillColor=#dae8fc;strokeColor=#6c8ebf;" vertex="1" parent="WIyWlLk6GJQsqaUBKTNV-1">
          <mxGeometry x="760" y="-1030" width="120" height="60" as="geometry" />
        </mxCell>
        <mxCell id="mdEiC-76GbIUr6cUF3B1-1" value="Alteração Senha" style="rounded=1;whiteSpace=wrap;html=1;fillColor=#dae8fc;strokeColor=#6c8ebf;" vertex="1" parent="WIyWlLk6GJQsqaUBKTNV-1">
          <mxGeometry x="440" y="-730" width="120" height="60" as="geometry" />
        </mxCell>
        <mxCell id="mdEiC-76GbIUr6cUF3B1-30" style="edgeStyle=orthogonalEdgeStyle;rounded=0;orthogonalLoop=1;jettySize=auto;html=1;entryX=0.5;entryY=0;entryDx=0;entryDy=0;" edge="1" parent="WIyWlLk6GJQsqaUBKTNV-1" source="mdEiC-76GbIUr6cUF3B1-2" target="mdEiC-76GbIUr6cUF3B1-1">
          <mxGeometry relative="1" as="geometry" />
        </mxCell>
        <mxCell id="mdEiC-76GbIUr6cUF3B1-2" value="Esqueceu Senha" style="rounded=1;whiteSpace=wrap;html=1;fillColor=#dae8fc;strokeColor=#6c8ebf;" vertex="1" parent="WIyWlLk6GJQsqaUBKTNV-1">
          <mxGeometry x="440" y="-880" width="120" height="60" as="geometry" />
        </mxCell>
        <mxCell id="mdEiC-76GbIUr6cUF3B1-35" style="edgeStyle=orthogonalEdgeStyle;rounded=0;orthogonalLoop=1;jettySize=auto;html=1;entryX=1;entryY=0.5;entryDx=0;entryDy=0;" edge="1" parent="WIyWlLk6GJQsqaUBKTNV-1" source="mdEiC-76GbIUr6cUF3B1-3" target="mdEiC-76GbIUr6cUF3B1-26">
          <mxGeometry relative="1" as="geometry" />
        </mxCell>
        <mxCell id="mdEiC-76GbIUr6cUF3B1-3" value="Cadastro Final" style="rounded=1;whiteSpace=wrap;html=1;fillColor=#dae8fc;strokeColor=#6c8ebf;" vertex="1" parent="WIyWlLk6GJQsqaUBKTNV-1">
          <mxGeometry x="1040" y="-740" width="120" height="60" as="geometry" />
        </mxCell>
        <mxCell id="mdEiC-76GbIUr6cUF3B1-32" style="edgeStyle=orthogonalEdgeStyle;rounded=0;orthogonalLoop=1;jettySize=auto;html=1;" edge="1" parent="WIyWlLk6GJQsqaUBKTNV-1" source="mdEiC-76GbIUr6cUF3B1-4" target="mdEiC-76GbIUr6cUF3B1-3">
          <mxGeometry relative="1" as="geometry" />
        </mxCell>
        <mxCell id="mdEiC-76GbIUr6cUF3B1-4" value="Cadastro Inicial" style="rounded=1;whiteSpace=wrap;html=1;fillColor=#dae8fc;strokeColor=#6c8ebf;" vertex="1" parent="WIyWlLk6GJQsqaUBKTNV-1">
          <mxGeometry x="1040" y="-880" width="120" height="60" as="geometry" />
        </mxCell>
        <mxCell id="mdEiC-76GbIUr6cUF3B1-5" value="Lista Escolha Cadastros" style="rounded=1;whiteSpace=wrap;html=1;fillColor=#d5e8d4;strokeColor=#82b366;" vertex="1" parent="WIyWlLk6GJQsqaUBKTNV-1">
          <mxGeometry x="950" y="-620" width="120" height="60" as="geometry" />
        </mxCell>
        <mxCell id="mdEiC-76GbIUr6cUF3B1-6" value="Lista Clientes / Fornecedores" style="rounded=1;whiteSpace=wrap;html=1;fillColor=#d5e8d4;strokeColor=#82b366;" vertex="1" parent="WIyWlLk6GJQsqaUBKTNV-1">
          <mxGeometry x="1170" y="300" width="120" height="60" as="geometry" />
        </mxCell>
        <mxCell id="mdEiC-76GbIUr6cUF3B1-7" value="Lista Membros" style="rounded=1;whiteSpace=wrap;html=1;fillColor=#d5e8d4;strokeColor=#82b366;" vertex="1" parent="WIyWlLk6GJQsqaUBKTNV-1">
          <mxGeometry x="1010" y="300" width="120" height="60" as="geometry" />
        </mxCell>
        <mxCell id="mdEiC-76GbIUr6cUF3B1-8" value="Lista Produtos" style="rounded=1;whiteSpace=wrap;html=1;fillColor=#d5e8d4;strokeColor=#82b366;" vertex="1" parent="WIyWlLk6GJQsqaUBKTNV-1">
          <mxGeometry x="1320" y="300" width="120" height="60" as="geometry" />
        </mxCell>
        <mxCell id="mdEiC-76GbIUr6cUF3B1-9" value="Cadastro Membros" style="rounded=1;whiteSpace=wrap;html=1;fillColor=#d5e8d4;strokeColor=#82b366;" vertex="1" parent="WIyWlLk6GJQsqaUBKTNV-1">
          <mxGeometry x="860" y="390" width="120" height="60" as="geometry" />
        </mxCell>
        <mxCell id="mdEiC-76GbIUr6cUF3B1-10" value="Cadastro Produtos" style="rounded=1;whiteSpace=wrap;html=1;fillColor=#d5e8d4;strokeColor=#82b366;" vertex="1" parent="WIyWlLk6GJQsqaUBKTNV-1">
          <mxGeometry x="1190" y="390" width="120" height="60" as="geometry" />
        </mxCell>
        <mxCell id="mdEiC-76GbIUr6cUF3B1-11" value="Cadastro Clientes / Fornecedores" style="rounded=1;whiteSpace=wrap;html=1;fillColor=#d5e8d4;strokeColor=#82b366;" vertex="1" parent="WIyWlLk6GJQsqaUBKTNV-1">
          <mxGeometry x="1010" y="390" width="120" height="60" as="geometry" />
        </mxCell>
        <mxCell id="mdEiC-76GbIUr6cUF3B1-12" value="Lista Escolha Movimentação Caixa" style="rounded=1;whiteSpace=wrap;html=1;fillColor=#d5e8d4;strokeColor=#82b366;" vertex="1" parent="WIyWlLk6GJQsqaUBKTNV-1">
          <mxGeometry x="950" y="-420" width="120" height="60" as="geometry" />
        </mxCell>
        <mxCell id="mdEiC-76GbIUr6cUF3B1-13" value="Lista Contas a Receber" style="rounded=1;whiteSpace=wrap;html=1;fillColor=#d5e8d4;strokeColor=#82b366;" vertex="1" parent="WIyWlLk6GJQsqaUBKTNV-1">
          <mxGeometry x="1190" y="480" width="120" height="60" as="geometry" />
        </mxCell>
        <mxCell id="mdEiC-76GbIUr6cUF3B1-14" value="Lista Contas a Pagar" style="rounded=1;whiteSpace=wrap;html=1;fillColor=#d5e8d4;strokeColor=#82b366;" vertex="1" parent="WIyWlLk6GJQsqaUBKTNV-1">
          <mxGeometry x="1010" y="480" width="120" height="60" as="geometry" />
        </mxCell>
        <mxCell id="mdEiC-76GbIUr6cUF3B1-15" value="Cadastro Contas a Pagar" style="rounded=1;whiteSpace=wrap;html=1;fillColor=#d5e8d4;strokeColor=#82b366;" vertex="1" parent="WIyWlLk6GJQsqaUBKTNV-1">
          <mxGeometry x="1330" y="480" width="120" height="60" as="geometry" />
        </mxCell>
        <mxCell id="mdEiC-76GbIUr6cUF3B1-16" value="Cadastro Contas a Receber" style="rounded=1;whiteSpace=wrap;html=1;fillColor=#d5e8d4;strokeColor=#82b366;" vertex="1" parent="WIyWlLk6GJQsqaUBKTNV-1">
          <mxGeometry x="860" y="560" width="120" height="60" as="geometry" />
        </mxCell>
        <mxCell id="mdEiC-76GbIUr6cUF3B1-17" value="Lista Escolha Documento" style="rounded=1;whiteSpace=wrap;html=1;fillColor=#d5e8d4;strokeColor=#82b366;" vertex="1" parent="WIyWlLk6GJQsqaUBKTNV-1">
          <mxGeometry x="950" y="-520" width="120" height="60" as="geometry" />
        </mxCell>
        <mxCell id="mdEiC-76GbIUr6cUF3B1-18" value="Cadastro Pedido Entrada" style="rounded=1;whiteSpace=wrap;html=1;fillColor=#d5e8d4;strokeColor=#82b366;" vertex="1" parent="WIyWlLk6GJQsqaUBKTNV-1">
          <mxGeometry x="870" y="730" width="120" height="60" as="geometry" />
        </mxCell>
        <mxCell id="mdEiC-76GbIUr6cUF3B1-19" value="Cadastro OS" style="rounded=1;whiteSpace=wrap;html=1;fillColor=#d5e8d4;strokeColor=#82b366;" vertex="1" parent="WIyWlLk6GJQsqaUBKTNV-1">
          <mxGeometry x="1320" y="640" width="120" height="60" as="geometry" />
        </mxCell>
        <mxCell id="mdEiC-76GbIUr6cUF3B1-20" value="Lista Pedido Entrada" style="rounded=1;whiteSpace=wrap;html=1;fillColor=#d5e8d4;strokeColor=#82b366;" vertex="1" parent="WIyWlLk6GJQsqaUBKTNV-1">
          <mxGeometry x="1170" y="635" width="120" height="60" as="geometry" />
        </mxCell>
        <mxCell id="mdEiC-76GbIUr6cUF3B1-21" value="Lista OS" style="rounded=1;whiteSpace=wrap;html=1;fillColor=#d5e8d4;strokeColor=#82b366;" vertex="1" parent="WIyWlLk6GJQsqaUBKTNV-1">
          <mxGeometry x="1020" y="640" width="120" height="60" as="geometry" />
        </mxCell>
        <mxCell id="mdEiC-76GbIUr6cUF3B1-22" value="Lista Escolha Relatório" style="rounded=1;whiteSpace=wrap;html=1;fillColor=#e1d5e7;strokeColor=#9673a6;" vertex="1" parent="WIyWlLk6GJQsqaUBKTNV-1">
          <mxGeometry x="550" y="-620" width="120" height="60" as="geometry" />
        </mxCell>
        <mxCell id="mdEiC-76GbIUr6cUF3B1-23" value="Alteração de Dados Info" style="rounded=1;whiteSpace=wrap;html=1;fillColor=#e1d5e7;strokeColor=#9673a6;" vertex="1" parent="WIyWlLk6GJQsqaUBKTNV-1">
          <mxGeometry x="550" y="-520" width="120" height="60" as="geometry" />
        </mxCell>
        <mxCell id="mdEiC-76GbIUr6cUF3B1-24" value="Logoff" style="rounded=1;whiteSpace=wrap;html=1;fillColor=#e1d5e7;strokeColor=#9673a6;" vertex="1" parent="WIyWlLk6GJQsqaUBKTNV-1">
          <mxGeometry x="550" y="-420" width="120" height="60" as="geometry" />
        </mxCell>
        <mxCell id="mdEiC-76GbIUr6cUF3B1-25" value="Sistemap" style="text;html=1;resizable=0;autosize=1;align=center;verticalAlign=middle;points=[];rounded=0;fontStyle=5;dashed=1;shadow=0;sketch=0;glass=0;fontSize=30;direction=west;rotation=0;" vertex="1" parent="WIyWlLk6GJQsqaUBKTNV-1">
          <mxGeometry x="750" y="-1130" width="150" height="40" as="geometry" />
        </mxCell>
        <mxCell id="mdEiC-76GbIUr6cUF3B1-36" style="edgeStyle=orthogonalEdgeStyle;rounded=0;orthogonalLoop=1;jettySize=auto;html=1;entryX=1;entryY=0.5;entryDx=0;entryDy=0;exitX=0.5;exitY=1;exitDx=0;exitDy=0;" edge="1" parent="WIyWlLk6GJQsqaUBKTNV-1" source="mdEiC-76GbIUr6cUF3B1-26" target="mdEiC-76GbIUr6cUF3B1-22">
          <mxGeometry relative="1" as="geometry" />
        </mxCell>
        <mxCell id="mdEiC-76GbIUr6cUF3B1-37" style="edgeStyle=orthogonalEdgeStyle;rounded=0;orthogonalLoop=1;jettySize=auto;html=1;entryX=1;entryY=0.5;entryDx=0;entryDy=0;exitX=0.5;exitY=1;exitDx=0;exitDy=0;" edge="1" parent="WIyWlLk6GJQsqaUBKTNV-1" source="mdEiC-76GbIUr6cUF3B1-26" target="mdEiC-76GbIUr6cUF3B1-23">
          <mxGeometry relative="1" as="geometry" />
        </mxCell>
        <mxCell id="mdEiC-76GbIUr6cUF3B1-39" style="edgeStyle=orthogonalEdgeStyle;rounded=0;orthogonalLoop=1;jettySize=auto;html=1;entryX=1;entryY=0.5;entryDx=0;entryDy=0;exitX=0.5;exitY=1;exitDx=0;exitDy=0;" edge="1" parent="WIyWlLk6GJQsqaUBKTNV-1" source="mdEiC-76GbIUr6cUF3B1-26" target="mdEiC-76GbIUr6cUF3B1-24">
          <mxGeometry relative="1" as="geometry" />
        </mxCell>
        <mxCell id="mdEiC-76GbIUr6cUF3B1-40" style="edgeStyle=orthogonalEdgeStyle;rounded=0;orthogonalLoop=1;jettySize=auto;html=1;entryX=0;entryY=0.5;entryDx=0;entryDy=0;exitX=0.5;exitY=1;exitDx=0;exitDy=0;" edge="1" parent="WIyWlLk6GJQsqaUBKTNV-1" source="mdEiC-76GbIUr6cUF3B1-26" target="mdEiC-76GbIUr6cUF3B1-5">
          <mxGeometry relative="1" as="geometry" />
        </mxCell>
        <mxCell id="mdEiC-76GbIUr6cUF3B1-41" style="edgeStyle=orthogonalEdgeStyle;rounded=0;orthogonalLoop=1;jettySize=auto;html=1;entryX=0;entryY=0.5;entryDx=0;entryDy=0;exitX=0.5;exitY=1;exitDx=0;exitDy=0;" edge="1" parent="WIyWlLk6GJQsqaUBKTNV-1" source="mdEiC-76GbIUr6cUF3B1-26" target="mdEiC-76GbIUr6cUF3B1-17">
          <mxGeometry relative="1" as="geometry" />
        </mxCell>
        <mxCell id="mdEiC-76GbIUr6cUF3B1-42" style="edgeStyle=orthogonalEdgeStyle;rounded=0;orthogonalLoop=1;jettySize=auto;html=1;entryX=0;entryY=0.5;entryDx=0;entryDy=0;exitX=0.5;exitY=1;exitDx=0;exitDy=0;" edge="1" parent="WIyWlLk6GJQsqaUBKTNV-1" source="mdEiC-76GbIUr6cUF3B1-26" target="mdEiC-76GbIUr6cUF3B1-12">
          <mxGeometry relative="1" as="geometry" />
        </mxCell>
        <mxCell id="mdEiC-76GbIUr6cUF3B1-26" value="Painel" style="rounded=1;whiteSpace=wrap;html=1;fillColor=#dae8fc;strokeColor=#6c8ebf;" vertex="1" parent="WIyWlLk6GJQsqaUBKTNV-1">
          <mxGeometry x="750" y="-740" width="120" height="60" as="geometry" />
        </mxCell>
      </root>
    </mxGraphModel>
  </diagram>
</mxfile>
